<svg width="24" height="25" viewBox="0 0 24 25" fill="none" xmlns="http://www.w3.org/2000/svg">
<path d="M12.0002 1.74999C12.1652 1.74999 12.329 1.74999 12.4915 1.74999C10.8856 3.24212 9.85345 5.2498 9.57433 7.42402C9.2952 9.59824 9.78679 11.8015 10.9636 13.6509C12.1405 15.5003 13.9282 16.8788 16.016 17.5468C18.1038 18.2149 20.3596 18.1302 22.3915 17.3075C21.6099 19.1881 20.3325 20.8213 18.6955 22.0328C17.0584 23.2443 15.1233 23.9888 13.0964 24.1867C11.0694 24.3847 9.02679 24.0287 7.18633 23.1567C5.34586 22.2848 3.77661 20.9296 2.64595 19.2357C1.5153 17.5419 0.865654 15.5728 0.766322 13.5387C0.666989 11.5046 1.12169 9.48161 2.08193 7.68563C3.04217 5.88965 4.47192 4.38802 6.21867 3.34091C7.96542 2.29379 9.96366 1.74048 12.0002 1.73999V1.74999Z" stroke="white" stroke-width="1.5" stroke-linecap="round" stroke-linejoin="round"/>
</svg>
